<?xml version="1.0" encoding="utf-8"?><svg xmlns="http://www.w3.org/2000/svg" xmlns:xlink="http://www.w3.org/1999/xlink" width="1280" height="863" preserveAspectRatio="xMidYMid" viewBox="0 0 1280 863" style="z-index:1;margin-right:-2px;display:block;background-color:rgb(255, 255, 255);animation-play-state:paused" ><g transform="translate(640,431.5) scale(1,1) translate(-640,-431.5)" style="transform:matrix(1, 0, 0, 1, 0, 0);animation-play-state:paused" ><path id="path0" d="M 814.5530691294202 108.68427635263954
c 0 32.686641786467 -7.997795330731285 9.38871625781499 -17.386511588546274 9.38871625781499
S 779.7800459523278 141.37091813910655 779.7800459523278 108.68427635263954
s 7.997795330731285 -9.38871625781499 17.386511588546274 -9.38871625781499
S 814.5530691294202 75.99763456617254 814.5530691294202 108.68427635263954
z" fill="none" stroke="none" style="animation-play-state:paused" ></path>


<circle cx="0" cy="0" r="6.917850364573507" fill="#ff708e" opacity="0.9" transform="translate(780.7908935546875 122.6613540649414)" style="opacity:0.9;animation-play-state:paused" ></circle>
<path id="path1" d="M 616.4364177593325 549.9453716624114
c 0 36.40175068766033 -8.90681133847008 10.455822006030095 -19.362633344500175 10.455822006030095
S 577.7111510703321 586.3471223500717 577.7111510703321 549.9453716624114
s 8.90681133847008 -10.455822006030095 19.362633344500175 -10.455822006030095
S 616.4364177593325 513.5436209747511 616.4364177593325 549.9453716624114
z" fill="none" stroke="none" style="animation-play-state:paused" ></path>


<circle cx="0" cy="0" r="5.266440008702508" fill="#9df871" opacity="0.9" transform="translate(589.5242919921875 535.9122924804688)" style="opacity:0.9;animation-play-state:paused" ></circle>
<path id="path2" d="M 813.9331700105266 312.33874408390244
c 0 34.73725641936551 -8.499541464312836 9.977722588541157 -18.477264052853993 9.977722588541157
S 776.9786419048186 347.07600050326795 776.9786419048186 312.33874408390244
s 8.499541464312836 -9.977722588541157 18.477264052853993 -9.977722588541157
S 813.9331700105266 277.60148766453693 813.9331700105266 312.33874408390244
z" fill="none" stroke="none" style="animation-play-state:paused" ></path>


<circle cx="0" cy="0" r="4.170635521640821" fill="#ff708e" opacity="0.9" transform="translate(789.6218872070312 300.00555419921875)" style="opacity:0.9;animation-play-state:paused" ></circle>
<path id="path3" d="M 393.9385568169589 205.51804524849888
c 0 29.855171789168757 -7.304988842030653 8.575421684122942 -15.880410526153595 8.575421684122942
S 362.17773576465174 235.37321703766764 362.17773576465174 205.51804524849888
s 7.304988842030653 -8.575421684122942 15.880410526153595 -8.575421684122942
S 393.9385568169589 175.66287345933011 393.9385568169589 205.51804524849888
z" fill="none" stroke="none" style="animation-play-state:paused" ></path>


<circle cx="0" cy="0" r="4.8693881073010035" fill="#9df871" opacity="0.9" transform="translate(379.9750671386719 214.4259796142578)" style="opacity:0.9;animation-play-state:paused" ></circle>
<path id="path4" d="M 1118.1731626978476 741.5885068976966
c 0 33.28519018387427 -8.144248662011789 9.560639733666013 -17.704888395677802 9.560639733666013
S 1082.7633859064922 774.8736970815709 1082.7633859064922 741.5885068976966
s 8.144248662011789 -9.560639733666013 17.704888395677802 -9.560639733666013
S 1118.1731626978476 708.3033167138223 1118.1731626978476 741.5885068976966
z" fill="none" stroke="none" style="animation-play-state:paused" ></path>


<circle cx="0" cy="0" r="4.48888052164695" fill="#ff708e" opacity="0.9" transform="translate(1116.5994873046875 725.6737670898438)" style="opacity:0.9;animation-play-state:paused" ></circle>
<path id="path5" d="M 582.6222123008957 422.33939863871313
c 0 20.515556512789143 -5.019763827597344 5.892766232396882 -10.912530059994225 5.892766232396882
S 560.7971521809073 442.8549551515023 560.7971521809073 422.33939863871313
s 5.019763827597344 -5.892766232396882 10.912530059994225 -5.892766232396882
S 582.6222123008957 401.823842125924 582.6222123008957 422.33939863871313
z" fill="none" stroke="none" style="animation-play-state:paused" ></path>


<circle cx="0" cy="0" r="4.3092009223244965" fill="#de9dd6" opacity="0.9" transform="translate(581.7561645507812 431.88665771484375)" style="opacity:0.9;animation-play-state:paused" ></circle>
<path id="path6" d="M 271.2639347444078 125.52711324515971
c 0 33.649929555132 -8.233493401787616 9.66540529775068 -17.898898699538297 9.66540529775068
S 235.46613734533116 159.1770428002917 235.46613734533116 125.52711324515971
s 8.233493401787616 -9.66540529775068 17.898898699538297 -9.66540529775068
S 271.2639347444078 91.87718369002772 271.2639347444078 125.52711324515971
z" fill="none" stroke="none" style="animation-play-state:paused" ></path>


<circle cx="0" cy="0" r="7.883764428487364" fill="#9df871" opacity="0.9" transform="translate(271.1672668457031 119.82537078857422)" style="opacity:0.9;animation-play-state:paused" ></circle>
<path id="path7" d="M 878.6654648843289 691.608438247217
c 0 30.723218509324855 -7.517383252281612 8.824754252678416 -16.34213750496003 8.824754252678416
S 845.9811898744088 722.3316567565419 845.9811898744088 691.608438247217
s 7.517383252281612 -8.824754252678416 16.34213750496003 -8.824754252678416
S 878.6654648843289 660.8852197378922 878.6654648843289 691.608438247217
z" fill="none" stroke="none" style="animation-play-state:paused" ></path>


<circle cx="0" cy="0" r="7.073947090813366" fill="#51cacc" opacity="0.9" transform="translate(867.32763671875 702.4051513671875)" style="opacity:0.9;animation-play-state:paused" ></circle>
<path id="path8" d="M 566.9280329231824 94.76991055842336
c 0 29.2144170047294 -7.148208416050809 8.391375097103126 -15.539583513153934 8.391375097103126
S 535.8488658968745 123.98432756315276 535.8488658968745 94.76991055842336
s 7.148208416050809 -8.391375097103126 15.539583513153934 -8.391375097103126
S 566.9280329231824 65.55549355369396 566.9280329231824 94.76991055842336
z" fill="none" stroke="none" style="animation-play-state:paused" ></path>


<circle cx="0" cy="0" r="5.944661981719281" fill="#9df871" opacity="0.9" transform="translate(542.1204833984375 80.77722930908203)" style="opacity:0.9;animation-play-state:paused" ></circle>
<path id="path9" d="M 1234.2533763732706 264.5263932262833
c 0 37.067979929838444 -9.06982487644983 10.647185724528063 -19.717010600977893 10.647185724528063
S 1194.819355171315 301.5943731561217 1194.819355171315 264.5263932262833
s 9.06982487644983 -10.647185724528063 19.717010600977893 -10.647185724528063
S 1234.2533763732706 227.45841329644486 1234.2533763732706 264.5263932262833
z" fill="none" stroke="none" style="animation-play-state:paused" ></path>


<circle cx="0" cy="0" r="4.77434393354835" fill="#e0ff77" opacity="0.9" transform="translate(1218.923583984375 276.4965515136719)" style="opacity:0.9;animation-play-state:paused" ></circle>
<path id="path10" d="M 851.3059515080975 696.5225479468462
c 0 30.135558419309113 -7.373594081320315 8.655958269376022 -16.029552350696335 8.655958269376022
S 819.2468468067048 726.6581063661553 819.2468468067048 696.5225479468462
s 7.373594081320315 -8.655958269376022 16.029552350696335 -8.655958269376022
S 851.3059515080975 666.3869895275371 851.3059515080975 696.5225479468462
z" fill="none" stroke="none" style="animation-play-state:paused" ></path>


<circle cx="0" cy="0" r="4.608465357168572" fill="#de9dd6" opacity="0.9" transform="translate(850.2742919921875 709.7904663085938)" style="opacity:0.9;animation-play-state:paused" ></circle>
<path id="path11" d="M 58.92232042986231 390.5873201302649
c 0 32.1852714880328 -7.87511961941228 9.244705640179633 -17.119825259591913 9.244705640179633
S 24.682669910678484 422.7725916182977 24.682669910678484 390.5873201302649
s 7.87511961941228 -9.244705640179633 17.119825259591913 -9.244705640179633
S 58.92232042986231 358.4020486422321 58.92232042986231 390.5873201302649
z" fill="none" stroke="none" style="animation-play-state:paused" ></path>


<circle cx="0" cy="0" r="6.481966792448117" fill="#e0ff77" opacity="0.9" transform="translate(25.484676361083984 403.46539306640625)" style="opacity:0.9;animation-play-state:paused" ></circle>
<path id="path12" d="M 515.2831312601129 622.5543889067478
c 0 22.04449525794591 -5.3938658609867645 6.331929488984464 -11.725795349971229 6.331929488984464
S 491.8315405601705 644.5988841646937 491.8315405601705 622.5543889067478
s 5.3938658609867645 -6.331929488984464 11.725795349971229 -6.331929488984464
S 515.2831312601129 600.509893648802 515.2831312601129 622.5543889067478
z" fill="none" stroke="none" style="animation-play-state:paused" ></path>


<circle cx="0" cy="0" r="5.8049279532237605" fill="#ff708e" opacity="0.9" transform="translate(505.5561218261719 615.7463989257812)" style="opacity:0.9;animation-play-state:paused" ></circle>
<path id="path13" d="M 305.2266841496044 112.96795524325815
c 0 35.117151247424616 -8.592494454157086 10.086841315749624 -18.679335769906707 10.086841315749624
S 267.86801260979104 148.08510649068276 267.86801260979104 112.96795524325815
s 8.592494454157086 -10.086841315749624 18.679335769906707 -10.086841315749624
S 305.2266841496044 77.85080399583353 305.2266841496044 112.96795524325815
z" fill="none" stroke="none" style="animation-play-state:paused" ></path>


<circle cx="0" cy="0" r="6.296628128789331" fill="#9df871" opacity="0.9" transform="translate(293.928955078125 126.58597564697266)" style="opacity:0.9;animation-play-state:paused" ></circle>
<path id="path14" d="M 363.11465580914546 843.6602566485967
c 0 26.06928977647651 -6.378656009137868 7.487987488987933 -13.866643498125802 7.487987488987933
S 335.3813688128938 869.7295464250732 335.3813688128938 843.6602566485967
s 6.378656009137868 -7.487987488987933 13.866643498125802 -7.487987488987933
S 363.11465580914546 817.5909668721202 363.11465580914546 843.6602566485967
z" fill="none" stroke="none" style="animation-play-state:paused" ></path>


<circle cx="0" cy="0" r="5.386387298468291" fill="#e0ff77" opacity="0.9" transform="translate(345.76226806640625 835.0048828125)" style="opacity:0.9;animation-play-state:paused" ></circle>
<path id="path15" d="M 1111.281171568396 385.91719250227703
c 0 32.699095789018585 -8.000842586674759 9.392293471313849 -17.393136057988606 9.392293471313849
S 1076.4948994524188 418.61628829129563 1076.4948994524188 385.91719250227703
s 8.000842586674759 -9.392293471313849 17.393136057988606 -9.392293471313849
S 1111.281171568396 353.21809671325843 1111.281171568396 385.91719250227703
z" fill="none" stroke="none" style="animation-play-state:paused" ></path>


<circle cx="0" cy="0" r="6.843990163961052" fill="#de9dd6" opacity="0.9" transform="translate(1098.271728515625 396.7808837890625)" style="opacity:0.9;animation-play-state:paused" ></circle>
<path id="path16" d="M 1264.5281281269313 314.07597057837455
c 0 32.96213540479398 -8.065203343726187 9.467847403504656 -17.533050747230842 9.467847403504656
S 1229.4620266324696 347.0381059831685 1229.4620266324696 314.07597057837455
s 8.065203343726187 -9.467847403504656 17.533050747230842 -9.467847403504656
S 1264.5281281269313 281.1138351735806 1264.5281281269313 314.07597057837455
z" fill="none" stroke="none" style="animation-play-state:paused" ></path>


<circle cx="0" cy="0" r="6.621008732254505" fill="#e0ff77" opacity="0.9" transform="translate(1238.723388671875 300.15643310546875)" style="opacity:0.9;animation-play-state:paused" ></circle>
<path id="path17" d="M 813.2306287893394 317.9837625901513
c 0 32.14356753870689 -7.8649154615984935 9.23272684622432 -17.097642307822813 9.23272684622432
S 779.0353441736937 350.12733012885815 779.0353441736937 317.9837625901513
s 7.8649154615984935 -9.23272684622432 17.097642307822813 -9.23272684622432
S 813.2306287893394 285.8401950514444 813.2306287893394 317.9837625901513
z" fill="none" stroke="none" style="animation-play-state:paused" ></path>


<circle cx="0" cy="0" r="4.224600481134246" fill="#51cacc" opacity="0.9" transform="translate(779.1559448242188 324.1072692871094)" style="opacity:0.9;animation-play-state:paused" ></circle>
<path id="path18" d="M 50.096028319681906 426.7997913839775
c 0 25.20323046120656 -6.166747878805859 7.239225770772096 -13.405973649577955 7.239225770772096
S 23.284081020526 452.00302184518404 23.284081020526 426.7997913839775
s 6.166747878805859 -7.239225770772096 13.405973649577955 -7.239225770772096
S 50.096028319681906 401.59656092277095 50.096028319681906 426.7997913839775
z" fill="none" stroke="none" style="animation-play-state:paused" ></path>


<circle cx="0" cy="0" r="5.579563122272009" fill="#9df871" opacity="0.9" transform="translate(50.01496124267578 422.3161315917969)" style="opacity:0.9;animation-play-state:paused" ></circle>
<path id="path19" d="M 604.4192425172611 431.23413458631205
c 0 29.94209675399525 -7.326257716403093 8.60038949316885 -15.926647209571943 8.60038949316885
S 572.5659480981172 461.1762313403073 572.5659480981172 431.23413458631205
s 7.326257716403093 -8.60038949316885 15.926647209571943 -8.60038949316885
S 604.4192425172611 401.2920378323168 604.4192425172611 431.23413458631205
z" fill="none" stroke="none" style="animation-play-state:paused" ></path>


<circle cx="0" cy="0" r="4.8656673542128885" fill="#de9dd6" opacity="0.9" transform="translate(592.3248291015625 441.0706787109375)" style="opacity:0.9;animation-play-state:paused" ></circle>
<path id="path20" d="M 1099.5943319020441 320.1075573687311
c 0 34.62117530558659 -8.471138638600973 9.944380140966361 -18.415518779567332 9.944380140966361
S 1062.7632943429096 354.72873267431765 1062.7632943429096 320.1075573687311
s 8.471138638600973 -9.944380140966361 18.415518779567332 -9.944380140966361
S 1099.5943319020441 285.4863820631445 1099.5943319020441 320.1075573687311
z" fill="none" stroke="none" style="animation-play-state:paused" ></path>


<circle cx="0" cy="0" r="7.536297709749397" fill="#ff708e" opacity="0.9" transform="translate(1098.740234375 306.2986755371094)" style="opacity:0.9;animation-play-state:paused" ></circle>
<path id="path21" d="M 857.1993697795344 355.43290255000596
c 0 24.86959363672531 -6.085113336645553 7.143393916931737 -13.228507253577291 7.143393916931737
S 830.7423552723799 380.3024961867313 830.7423552723799 355.43290255000596
s 6.085113336645553 -7.143393916931737 13.228507253577291 -7.143393916931737
S 857.1993697795344 330.56330891328065 857.1993697795344 355.43290255000596
z" fill="none" stroke="none" style="animation-play-state:paused" ></path>


<circle cx="0" cy="0" r="4.232916932807801" fill="#9df871" opacity="0.9" transform="translate(841.3049926757812 363.31353759765625)" style="opacity:0.9;animation-play-state:paused" ></circle>
<path id="path22" d="M 1067.9297162105497 732.2774961538946
c 0 23.199584935271744 -5.676494186289894 6.663710566514224 -12.340204752804118 6.663710566514224
S 1043.2493067049415 755.4770810891664 1043.2493067049415 732.2774961538946
s 5.676494186289894 -6.663710566514224 12.340204752804118 -6.663710566514224
S 1067.9297162105497 709.0779112186228 1067.9297162105497 732.2774961538946
z" fill="none" stroke="none" style="animation-play-state:paused" ></path>


<circle cx="0" cy="0" r="7.707924616596601" fill="#e0ff77" opacity="0.9" transform="translate(1055.00244140625 738.9830322265625)" style="opacity:0.9;animation-play-state:paused" ></circle>
<path id="path23" d="M 715.6708227395254 37.21707195502219
c 0 28.051205665886158 -6.863592875695549 8.05726120190347 -14.920854077599019 8.05726120190347
S 685.8291145843273 65.26827762090835 685.8291145843273 37.21707195502219
s 6.863592875695549 -8.05726120190347 14.920854077599019 -8.05726120190347
S 715.6708227395254 9.165866289136034 715.6708227395254 37.21707195502219
z" fill="none" stroke="none" style="animation-play-state:paused" ></path>


<circle cx="0" cy="0" r="7.765793665196486" fill="#ff708e" opacity="0.9" transform="translate(704.5228881835938 46.5438232421875)" style="opacity:0.9;animation-play-state:paused" ></circle>
<path id="path24" d="M 229.1804074155576 759.9494950381375
c 0 27.201028442761302 -6.655570789186275 7.813061361218672 -14.468632150404947 7.813061361218672
S 200.2431431147477 787.1505234808988 200.2431431147477 759.9494950381375
s 6.655570789186275 -7.813061361218672 14.468632150404947 -7.813061361218672
S 229.1804074155576 732.7484665953762 229.1804074155576 759.9494950381375
z" fill="none" stroke="none" style="animation-play-state:paused" ></path>


<circle cx="0" cy="0" r="4.229486315253249" fill="#51cacc" opacity="0.9" transform="translate(229.17984008789062 760.2435302734375)" style="opacity:0.9;animation-play-state:paused" ></circle>
<path id="path25" d="M 980.2446567760545 827.2235161639979
c 0 34.60666317257099 -8.467587797543965 9.940211762334222 -18.407799559878185 9.940211762334222
S 943.4290576562981 861.8301793365689 943.4290576562981 827.2235161639979
s 8.467587797543965 -9.940211762334222 18.407799559878185 -9.940211762334222
S 980.2446567760545 792.616852991427 980.2446567760545 827.2235161639979
z" fill="none" stroke="none" style="animation-play-state:paused" ></path>


<circle cx="0" cy="0" r="6.205524375107849" fill="#de9dd6" opacity="0.9" transform="translate(944.1124877929688 840.0375366210938)" style="opacity:0.9;animation-play-state:paused" ></circle>
<path id="path26" d="M 823.6990905002202 752.566920472989
c 0 37.1004561510394 -9.077771185892619 10.656514000830468 -19.734285186723085 10.656514000830468
S 784.230520126774 789.6673766240284 784.230520126774 752.566920472989
s 9.077771185892619 -10.656514000830468 19.734285186723085 -10.656514000830468
S 823.6990905002202 715.4664643219495 823.6990905002202 752.566920472989
z" fill="none" stroke="none" style="animation-play-state:paused" ></path>


<circle cx="0" cy="0" r="7.622140394654391" fill="#ff708e" opacity="0.9" transform="translate(784.7186279296875 764.4290771484375)" style="opacity:0.9;animation-play-state:paused" ></circle>
<path id="path27" d="M 408.6364495915239 299.6979366215554
c 0 25.88222773430588 -6.33288550945782 7.434256902407007 -13.767142411864828 7.434256902407007
S 381.10216476779425 325.5801643558613 381.10216476779425 299.6979366215554
s 6.33288550945782 -7.434256902407007 13.767142411864828 -7.434256902407007
S 408.6364495915239 273.8157088872495 408.6364495915239 299.6979366215554
z" fill="none" stroke="none" style="animation-play-state:paused" ></path>


<circle cx="0" cy="0" r="6.670556315065717" fill="#51cacc" opacity="0.9" transform="translate(381.75567626953125 310.09808349609375)" style="opacity:0.9;animation-play-state:paused" ></circle>
<path id="path28" d="M 372.1292998386916 535.1225532238236
c 0 28.560000999384183 -6.98808535091315 8.203404542376308 -15.191489893289457 8.203404542376308
S 341.74632005211265 563.6825542232078 341.74632005211265 535.1225532238236
s 6.98808535091315 -8.203404542376308 15.191489893289457 -8.203404542376308
S 372.1292998386916 506.56255222443946 372.1292998386916 535.1225532238236
z" fill="none" stroke="none" style="animation-play-state:paused" ></path>


<circle cx="0" cy="0" r="7.279116956212212" fill="#51cacc" opacity="0.9" transform="translate(362.4111328125 524.471923828125)" style="opacity:0.9;animation-play-state:paused" ></circle>
<path id="path29" d="M 345.9211071654056 200.89965606657225
c 0 26.81208616854562 -6.560404062516481 7.701343899475869 -14.26174796199235 7.701343899475869
S 317.3976112414209 227.71174223511787 317.3976112414209 200.89965606657225
s 6.560404062516481 -7.701343899475869 14.26174796199235 -7.701343899475869
S 345.9211071654056 174.08756989802663 345.9211071654056 200.89965606657225
z" fill="none" stroke="none" style="animation-play-state:paused" ></path>


<circle cx="0" cy="0" r="4.592093326813586" fill="#de9dd6" opacity="0.9" transform="translate(343.8987121582031 186.95457458496094)" style="opacity:0.9;animation-play-state:paused" ></circle></g></svg>